<svg xmlns="http://www.w3.org/2000/svg" width="200" height="60" viewBox="0 0 200 60">
  <defs>
    <style>
      .cls-1 {
        fill: #fff;
        fill-rule: evenodd;
      }
    </style>
  </defs>
  <path id="_" data-name="#" class="cls-1" d="M33.246,27.136h4.759l-0.8,5.759H32.086v2.56h4.759l-1.28,9.119,2.479,0.36,1.32-9.478H44.8l-1.28,9.119,2.44,0.36,1.32-9.478h5.159V32.9h-4.8l0.84-5.759H53.6v-2.56H48.844l1.2-8.518-2.48-.36-1.24,8.878H40.885l1.2-8.518-2.44-.36-1.28,8.878H33.246v2.56Zm7.279,0h5.439l-0.8,5.759H39.725Z"/>
  <path id="_-" data-name="-" class="cls-1" d="M71.188,32.324H80.8v-2.88H71.188v2.88Z"/>
  <path id="_255" data-name="255" class="cls-1" d="M101.83,43.25h16.957v-3.12H108.229l7.438-9.918c0.6-.84,2.92-3.479,2.92-7.239,0-4.639-3.36-8.2-8.519-8.2a8.662,8.662,0,0,0-8.4,6.319l2.879,1.08a5.79,5.79,0,0,1,5.519-4.279,4.821,4.821,0,0,1,5.159,5.079c0,3.079-2.519,5.879-3.559,7.239Zm41.276-8.919c0-6.4-4.319-9.438-8.838-9.438a11.267,11.267,0,0,0-5.159,1.16V18.374h13.4V15.255h-16.6V31.172s3.72-3.119,7.6-3.119c3.439,0,6.239,2.08,6.239,6.279a5.9,5.9,0,0,1-6.159,6.279c-4.6,0-6.159-4.479-6.159-4.479l-2.92,1.56a9.742,9.742,0,0,0,9.079,6.039C138.427,43.73,143.106,40.61,143.106,34.332Zm24,0c0-6.4-4.319-9.438-8.838-9.438a11.267,11.267,0,0,0-5.159,1.16V18.374h13.4V15.255h-16.6V31.172s3.72-3.119,7.6-3.119c3.439,0,6.239,2.08,6.239,6.279a5.9,5.9,0,0,1-6.159,6.279c-4.6,0-6.159-4.479-6.159-4.479l-2.92,1.56a9.742,9.742,0,0,0,9.079,6.039C162.427,43.73,167.106,40.61,167.106,34.332Z"/>
</svg>
