<svg xmlns="http://www.w3.org/2000/svg" width="200" height="60" viewBox="0 0 200 60">
  <defs>
    <style>
      .cls-1 {
        fill: #fff;
        fill-rule: evenodd;
      }
    </style>
  </defs>
  <path id="_" data-name="#" class="cls-1" d="M33.246,27.136h4.759l-0.8,5.759H32.086v2.56h4.759l-1.28,9.119,2.479,0.36,1.32-9.478H44.8l-1.28,9.119,2.44,0.36,1.32-9.478h5.159V32.9h-4.8l0.84-5.759H53.6v-2.56H48.844l1.2-8.518-2.48-.36-1.24,8.878H40.885l1.2-8.518-2.44-.36-1.28,8.878H33.246v2.56Zm7.279,0h5.439l-0.8,5.759H39.725Z"/>
  <path id="_-" data-name="-" class="cls-1" d="M71.188,32.324H80.8v-2.88H71.188v2.88Z"/>
  <path id="_1010" data-name="1010" class="cls-1" d="M99.4,24.561l1.764,2.3,4.823-3.852V44.25h3.024v-25.2h-2.7Zm25.523-5.939c-6.408,0-9.179,6.3-9.179,13.03s2.771,13.03,9.179,13.03,9.106-6.3,9.106-13.03S131.328,18.621,124.921,18.621Zm0,23.253c-4.464,0-6.156-5.291-6.156-10.223s1.692-10.223,6.156-10.223S131,26.72,131,31.652,129.384,41.874,124.921,41.874ZM137.09,24.561l1.763,2.3,4.824-3.852V44.25H146.7v-25.2H144Zm25.522-5.939c-6.407,0-9.178,6.3-9.178,13.03s2.771,13.03,9.178,13.03,9.107-6.3,9.107-13.03S169.02,18.621,162.612,18.621Zm0,23.253c-4.463,0-6.155-5.291-6.155-10.223s1.692-10.223,6.155-10.223S168.7,26.72,168.7,31.652,167.076,41.874,162.612,41.874Z"/>
</svg>
