<svg xmlns="http://www.w3.org/2000/svg" width="194" height="50" viewBox="0 0 194 50">
  <defs>
    <style>
      .cls-1 {
        fill: #1e1f26;
        fill-rule: evenodd;
      }
    </style>
  </defs>
  <path id="color_pick" data-name="color pick" class="cls-1" d="M27.912,30.249a6.1,6.1,0,0,1-4.859,2.376c-3.348,0-5.543-2.664-5.543-5.939s2.2-5.939,5.543-5.939a6.146,6.146,0,0,1,4.571,2.016l2.052-1.836a8.913,8.913,0,0,0-6.623-2.988,8.537,8.537,0,0,0-8.567,8.747,8.516,8.516,0,0,0,8.567,8.747,8.968,8.968,0,0,0,6.8-3.2ZM41.124,17.938a8.516,8.516,0,0,0-8.567,8.747,8.569,8.569,0,1,0,17.134,0A8.516,8.516,0,0,0,41.124,17.938Zm0,14.686c-3.347,0-5.543-2.664-5.543-5.939s2.2-5.939,5.543-5.939,5.543,2.664,5.543,5.939S44.471,32.624,41.124,32.624ZM54.7,35H57.72V7.787H54.7V35ZM71.291,17.938a8.516,8.516,0,0,0-8.567,8.747,8.569,8.569,0,1,0,17.134,0A8.516,8.516,0,0,0,71.291,17.938Zm0,14.686c-3.348,0-5.543-2.664-5.543-5.939s2.2-5.939,5.543-5.939,5.543,2.664,5.543,5.939S74.639,32.624,71.291,32.624ZM91.667,17.938a5.565,5.565,0,0,0-4.643,2.988V18.37H84.216V35h3.024V23.553s1.188-2.808,3.816-2.808a4.218,4.218,0,0,1,1.908.36l1.116-2.736A6.95,6.95,0,0,0,91.667,17.938Zm16.669,0.432V43.279h3.023V32.948a6.69,6.69,0,0,0,5.363,2.484c4.5,0,8.063-3.851,8.063-8.747s-3.563-8.747-8.063-8.747a6.546,6.546,0,0,0-5.615,2.844V18.37h-2.771Zm3.023,5.219a5.91,5.91,0,0,1,4.9-2.844c3.383,0,5.507,2.664,5.507,5.939s-2.124,5.939-5.507,5.939a5.91,5.91,0,0,1-4.9-2.844V23.589ZM129.683,35h3.024V18.37h-3.024V35Zm-0.54-21.957a2.052,2.052,0,1,0,2.052-2.052A2.074,2.074,0,0,0,129.143,13.043Zm21.886,17.206a6.1,6.1,0,0,1-4.859,2.376c-3.348,0-5.543-2.664-5.543-5.939s2.195-5.939,5.543-5.939a6.143,6.143,0,0,1,4.571,2.016l2.052-1.836a8.913,8.913,0,0,0-6.623-2.988,8.538,8.538,0,0,0-8.567,8.747,8.516,8.516,0,0,0,8.567,8.747,8.969,8.969,0,0,0,6.8-3.2ZM168.021,35h4.212l-8.423-8.783,7.775-7.847h-3.96L160.5,25.749V7.787h-3.024V35H160.5V26.937Z"/>
</svg>
