<svg xmlns="http://www.w3.org/2000/svg" width="220" height="54" viewBox="0 0 220 54">
  <defs>
    <style>
      .cls-1 {
        fill: #9ba1a4;
      }

      .cls-1, .cls-2, .cls-3 {
        fill-rule: evenodd;
      }

      .cls-2 {
        fill: #ffea00;
      }

      .cls-3 {
        fill: #67fb05;
      }
    </style>
  </defs>
  <path id="i" class="cls-1" d="M13.781,36.8H16.8V20.255H13.781V36.8Zm-0.54-21.846a2.05,2.05,0,1,0,2.05-2.041A2.068,2.068,0,0,0,13.241,14.955Z"/>
  <path class="cls-2" d="M178.022,16.106h14.751L184.1,37h-6.074V16.106Z"/>
  <path id="Rectangle_1_copy" data-name="Rectangle 1 copy" class="cls-3" d="M194.248,16.106H209L190.777,37H184.7Z"/>
  <path id="love" class="cls-1" d="M25.5,36.8h1.87V9.726h-1.8Zm15.576-16.76a8.308,8.308,0,0,0-8.345,8.6,8.349,8.349,0,1,0,16.69,0A8.308,8.308,0,0,0,41.073,20.041Zm0,15.364c-4.1,0-6.4-3.08-6.4-6.769s2.3-6.769,6.4-6.769,6.4,3.08,6.4,6.769S45.173,35.4,41.073,35.4ZM51.327,20.47l8.2,17.047,8.2-17.047H65.787L59.564,33.614,53.341,20.47H51.327Zm26.548-.43c-4.892,0-8.093,3.975-8.093,8.6a8.41,8.41,0,0,0,8.417,8.6,9.265,9.265,0,0,0,6.87-3.331L83.81,32.611A7.3,7.3,0,0,1,78.2,35.4a6.462,6.462,0,0,1-6.546-6.017H85.788a5.8,5.8,0,0,0,.036-0.752C85.824,23.622,82.227,20.041,77.875,20.041Zm-6.151,7.628a6.124,6.124,0,0,1,6.151-5.8c4.316,0,5.935,3.939,6.007,5.8H71.724Z"/>
  <path id="sums" class="cls-1" d="M92.905,33.558a9.116,9.116,0,0,0,7.122,3.474c3.2,0,6.583-1.647,6.583-4.835,0-3.366-2.7-4.548-5.863-5.229-2.734-.573-4.029-1.253-4.029-2.507,0-1.074,1.043-2.113,3.165-2.113a6.113,6.113,0,0,1,4.172,1.826l1.978-2.041a8.652,8.652,0,0,0-6.151-2.507c-3.7,0-6.115,2.364-6.115,4.763,0,3.116,2.518,4.512,6.079,5.229,2.553,0.5,3.776,1.218,3.776,2.65,0,1.325-1.906,2.041-3.6,2.041a6.414,6.414,0,0,1-5.035-2.686Zm24.606,3.474a5.889,5.889,0,0,0,5.108-2.972V36.6h2.806V20.056H122.4v11.46a5,5,0,0,1-4.137,2.722,3.677,3.677,0,0,1-3.992-4.047V20.056h-3.022V30.693A6.036,6.036,0,0,0,117.511,37.032Zm30.973-17.405a5.489,5.489,0,0,0-4.964,3.08s-1.043-3.08-5.18-3.08a5.073,5.073,0,0,0-4.6,2.865V20.056H130.93V36.6h3.022V25.07s1.115-2.65,3.561-2.65c2.158,0,3.561,1.325,3.561,4.011V36.6H144.1V25.07s1.079-2.65,3.561-2.65c2.158,0,3.561,1.325,3.561,4.011V36.6h3.021V25.966C154.239,21.883,151.937,19.627,148.484,19.627Zm10.183,13.931a9.116,9.116,0,0,0,7.122,3.474c3.2,0,6.583-1.647,6.583-4.835,0-3.366-2.7-4.548-5.863-5.229-2.734-.573-4.029-1.253-4.029-2.507,0-1.074,1.043-2.113,3.165-2.113a6.113,6.113,0,0,1,4.173,1.826l1.978-2.041a8.653,8.653,0,0,0-6.151-2.507c-3.705,0-6.115,2.364-6.115,4.763,0,3.116,2.518,4.512,6.079,5.229,2.554,0.5,3.777,1.218,3.777,2.65,0,1.325-1.906,2.041-3.6,2.041a6.415,6.415,0,0,1-5.036-2.686Z"/>
</svg>
