<svg xmlns="http://www.w3.org/2000/svg" width="199" height="50" viewBox="0 0 199 50">
  <defs>
    <style>
      .cls-1 {
        fill: #9ba1a4;
      }

      .cls-1, .cls-2, .cls-3 {
        fill-rule: evenodd;
      }

      .cls-2 {
        fill: #ffea00;
      }

      .cls-3 {
        fill: #67fb05;
      }
    </style>
  </defs>
  <path id="color" class="cls-1" d="M23.058,27.7a5.648,5.648,0,0,1-4.5,2.2c-3.1,0-5.131-2.466-5.131-5.5s2.032-5.5,5.131-5.5a5.688,5.688,0,0,1,4.231,1.866l1.9-1.7A8.249,8.249,0,0,0,18.56,16.3a7.9,7.9,0,0,0-7.929,8.1,7.883,7.883,0,0,0,7.929,8.1,8.3,8.3,0,0,0,6.3-2.966ZM35.287,16.3a7.884,7.884,0,0,0-7.929,8.1,7.931,7.931,0,1,0,15.859,0A7.884,7.884,0,0,0,35.287,16.3Zm0,13.6c-3.1,0-5.131-2.466-5.131-5.5s2.032-5.5,5.131-5.5,5.131,2.466,5.131,5.5S38.385,29.9,35.287,29.9Zm12.563,2.2h2.8V6.9h-2.8V32.1Zm15.36-15.8a7.884,7.884,0,0,0-7.929,8.1,7.931,7.931,0,1,0,15.859,0A7.884,7.884,0,0,0,63.209,16.3Zm0,13.6c-3.1,0-5.131-2.466-5.131-5.5s2.032-5.5,5.131-5.5,5.131,2.466,5.131,5.5S66.307,29.9,63.209,29.9ZM82.068,16.3a5.151,5.151,0,0,0-4.3,2.766V16.7h-2.6V32.1h2.8V21.5s1.1-2.6,3.532-2.6a3.9,3.9,0,0,1,1.766.333L84.3,16.7A6.432,6.432,0,0,0,82.068,16.3Z"/>
  <path id="pick" class="cls-1" d="M88.7,16.609V40.073h4v-9.3a5.637,5.637,0,0,0,4.465,2.033c4.1,0,7.7-3.433,7.7-8.3s-3.6-8.3-7.7-8.3a5.727,5.727,0,0,0-4.764,2.466V16.609H88.7Zm4,5.533a4.376,4.376,0,0,1,3.765-2.2,4.226,4.226,0,0,1,4.331,4.566,4.226,4.226,0,0,1-4.331,4.566,4.376,4.376,0,0,1-3.765-2.2V22.142Zm16.561,10.265h4v-15.8h-4v15.8Zm-0.633-20.9a2.632,2.632,0,1,0,2.632-2.633A2.617,2.617,0,0,0,108.621,11.51Zm17.526,17.565a4.377,4.377,0,0,1-4.431-4.566,4.377,4.377,0,0,1,4.431-4.566,4.908,4.908,0,0,1,3.7,1.666l2.765-2.466a8.463,8.463,0,0,0-6.463-2.933,8.3,8.3,0,1,0,0,16.6,8.547,8.547,0,0,0,6.53-3l-2.632-2.666A4.662,4.662,0,0,1,126.147,29.075ZM140.575,7.211h-4v25.2h4v-6.9l6.03,6.9h5.264l-7.4-8.332,6.93-7.466h-5.164l-5.664,6.232V7.211Z"/>
  <path class="cls-2" d="M158.274,12.963h13.664L163.9,32.407h-5.627V12.963Z"/>
  <path id="Rectangle_1_copy" data-name="Rectangle 1 copy" class="cls-3" d="M173.3,12.963h13.663L170.089,32.407h-5.626Z"/>
</svg>
